<svg width="134" height="183" viewBox="0 0 134 183" fill="none" xmlns="http://www.w3.org/2000/svg">
<g opacity="0.8" clip-path="url(#clip0_2893_2587)">
<path d="M39.4688 176.93C40.941 176.93 42.0451 178.038 42.0451 179.515C42.0451 180.992 40.941 182.1 39.4688 182.1C37.9967 182.1 36.8926 180.992 36.8926 179.515C36.8926 178.038 38.1194 176.93 39.4688 176.93Z" fill="#FFCF2D"/>
<path d="M39.4688 154.898C40.941 154.898 42.0451 156.006 42.0451 157.483C42.0451 158.96 40.941 160.067 39.4688 160.067C37.9967 160.067 36.8926 158.96 36.8926 157.483C36.8926 156.129 38.1194 154.898 39.4688 154.898Z" fill="#FFCF2D"/>
<path d="M39.4688 132.989C40.941 132.989 42.0451 134.096 42.0451 135.573C42.0451 137.05 40.941 138.158 39.4688 138.158C37.9967 138.158 36.8926 137.05 36.8926 135.573C36.8926 134.096 38.1194 132.989 39.4688 132.989Z" fill="#FFCF2D"/>
<path d="M39.4688 110.955C40.941 110.955 42.0451 112.063 42.0451 113.54C42.0451 115.017 40.941 116.125 39.4688 116.125C37.9967 116.125 36.8926 115.017 36.8926 113.54C36.8926 112.063 38.1194 110.955 39.4688 110.955Z" fill="#FFCF2D"/>
<path d="M39.4688 88.9231C40.941 88.9231 42.0451 90.0309 42.0451 91.508C42.0451 92.985 40.941 94.0928 39.4688 94.0928C37.9967 94.0928 36.8926 92.985 36.8926 91.508C36.8926 90.154 38.1194 88.9231 39.4688 88.9231Z" fill="#FFCF2D"/>
<path d="M39.4688 66.8899C40.941 66.8899 42.0451 67.9977 42.0451 69.4748C42.0451 70.9518 40.941 72.0596 39.4688 72.0596C37.9967 72.0596 36.8926 70.9518 36.8926 69.4748C36.8926 67.9977 38.1194 66.8899 39.4688 66.8899Z" fill="#FFCF2D"/>
<path d="M39.4688 44.9817C40.941 44.9817 42.0451 46.0895 42.0451 47.5665C42.0451 49.0436 40.941 50.1514 39.4688 50.1514C37.9967 50.1514 36.8926 49.0436 36.8926 47.5665C36.8926 46.0895 38.1194 44.9817 39.4688 44.9817Z" fill="#FFCF2D"/>
<path d="M39.4688 22.9485C40.941 22.9485 42.0451 24.0563 42.0451 25.5334C42.0451 27.0104 40.941 28.1182 39.4688 28.1182C37.9967 28.1182 36.8926 27.0104 36.8926 25.5334C36.8926 24.0563 38.1194 22.9485 39.4688 22.9485Z" fill="#FFCF2D"/>
<path d="M39.4688 0.916321C40.941 0.916321 42.0451 2.02409 42.0451 3.50112C42.0451 4.97815 40.941 6.08594 39.4688 6.08594C37.9967 6.08594 36.8926 4.97815 36.8926 3.50112C36.8926 2.14717 38.1194 0.916321 39.4688 0.916321Z" fill="#FFCF2D"/>
<path d="M57.7481 176.93C59.2203 176.93 60.3244 178.038 60.3244 179.515C60.3244 180.992 59.2203 182.1 57.7481 182.1C56.276 182.1 55.1719 180.992 55.1719 179.515C55.1719 178.038 56.276 176.93 57.7481 176.93Z" fill="#FFCF2D"/>
<path d="M57.7481 154.898C59.2203 154.898 60.3244 156.006 60.3244 157.483C60.3244 158.96 59.2203 160.067 57.7481 160.067C56.276 160.067 55.1719 158.96 55.1719 157.483C55.1719 156.129 56.276 154.898 57.7481 154.898Z" fill="#FFCF2D"/>
<path d="M57.7481 132.989C59.2203 132.989 60.3244 134.096 60.3244 135.573C60.3244 137.05 59.2203 138.158 57.7481 138.158C56.276 138.158 55.1719 137.05 55.1719 135.573C55.1719 134.096 56.276 132.989 57.7481 132.989Z" fill="#FFCF2D"/>
<path d="M57.7481 110.955C59.2203 110.955 60.3244 112.063 60.3244 113.54C60.3244 115.017 59.2203 116.125 57.7481 116.125C56.276 116.125 55.1719 115.017 55.1719 113.54C55.1719 112.063 56.276 110.955 57.7481 110.955Z" fill="#FFCF2D"/>
<path d="M57.7481 88.9231C59.2203 88.9231 60.3244 90.0309 60.3244 91.508C60.3244 92.985 59.2203 94.0928 57.7481 94.0928C56.276 94.0928 55.1719 92.985 55.1719 91.508C55.1719 90.154 56.276 88.9231 57.7481 88.9231Z" fill="#FFCF2D"/>
<path d="M57.7481 66.8899C59.2203 66.8899 60.3244 67.9977 60.3244 69.4748C60.3244 70.9518 59.2203 72.0596 57.7481 72.0596C56.276 72.0596 55.1719 70.9518 55.1719 69.4748C55.1719 67.9977 56.276 66.8899 57.7481 66.8899Z" fill="#FFCF2D"/>
<path d="M57.7481 44.9817C59.2203 44.9817 60.3244 46.0895 60.3244 47.5665C60.3244 49.0436 59.2203 50.1514 57.7481 50.1514C56.276 50.1514 55.1719 49.0436 55.1719 47.5665C55.1719 46.0895 56.276 44.9817 57.7481 44.9817Z" fill="#FFCF2D"/>
<path d="M57.7481 22.9485C59.2203 22.9485 60.3244 24.0563 60.3244 25.5333C60.3244 27.0104 59.2203 28.1182 57.7481 28.1182C56.276 28.1182 55.1719 27.0104 55.1719 25.5333C55.1719 24.0563 56.276 22.9485 57.7481 22.9485Z" fill="#FFCF2D"/>
<path d="M57.7481 0.916306C59.2203 0.916306 60.3244 2.02407 60.3244 3.50111C60.3244 4.97815 59.2203 6.08594 57.7481 6.08594C56.276 6.08594 55.1719 4.97815 55.1719 3.50111C55.1719 2.14716 56.276 0.916306 57.7481 0.916306Z" fill="#FFCF2D"/>
<path d="M3.03329 176.93C4.50544 176.93 5.60955 178.038 5.60955 179.515C5.60955 180.992 4.50544 182.1 3.03329 182.1C1.56114 182.1 0.457031 180.992 0.457031 179.515C0.457031 178.038 1.56114 176.93 3.03329 176.93Z" fill="#FFCF2D"/>
<path d="M3.03329 154.898C4.50544 154.898 5.60955 156.006 5.60955 157.483C5.60955 158.96 4.50544 160.067 3.03329 160.067C1.56114 160.067 0.457031 158.96 0.457031 157.483C0.457031 156.129 1.56114 154.898 3.03329 154.898Z" fill="#FFCF2D"/>
<path d="M3.03329 132.989C4.50544 132.989 5.60955 134.096 5.60955 135.573C5.60955 137.05 4.50544 138.158 3.03329 138.158C1.56114 138.158 0.457031 136.927 0.457031 135.573C0.457031 134.096 1.56114 132.989 3.03329 132.989Z" fill="#FFCF2D"/>
<path d="M3.03329 110.955C4.50544 110.955 5.60955 112.063 5.60955 113.54C5.60955 115.017 4.50544 116.125 3.03329 116.125C1.56114 116.125 0.457031 114.894 0.457031 113.54C0.457031 112.186 1.56114 110.955 3.03329 110.955Z" fill="#FFCF2D"/>
<path d="M3.03329 88.9231C4.50544 88.9231 5.60955 90.0309 5.60955 91.508C5.60955 92.985 4.50544 94.0928 3.03329 94.0928C1.56114 94.0928 0.457031 92.985 0.457031 91.508C0.457031 90.154 1.56114 88.9231 3.03329 88.9231Z" fill="#FFCF2D"/>
<path d="M3.03329 66.8899C4.50544 66.8899 5.60955 67.9977 5.60955 69.4748C5.60955 70.9518 4.50544 72.0596 3.03329 72.0596C1.56114 72.0596 0.457031 70.9518 0.457031 69.4748C0.457031 67.9977 1.56114 66.8899 3.03329 66.8899Z" fill="#FFCF2D"/>
<path d="M3.03329 44.9817C4.50544 44.9817 5.60955 46.0895 5.60955 47.5665C5.60955 49.0436 4.50544 50.1514 3.03329 50.1514C1.56114 50.1514 0.457031 49.0436 0.457031 47.5665C0.457031 46.0895 1.56114 44.9817 3.03329 44.9817Z" fill="#FFCF2D"/>
<path d="M3.03329 22.9485C4.50544 22.9485 5.60955 24.0563 5.60955 25.5333C5.60955 27.0104 4.50544 28.1182 3.03329 28.1182C1.56114 28.1182 0.457031 27.0104 0.457031 25.5333C0.457031 24.0563 1.56114 22.9485 3.03329 22.9485Z" fill="#FFCF2D"/>
<path d="M3.03329 0.916321C4.50544 0.916321 5.60955 2.02409 5.60955 3.50112C5.60955 4.97815 4.50544 6.08594 3.03329 6.08594C1.56114 6.08594 0.457031 4.97815 0.457031 3.50112C0.457031 2.14717 1.56114 0.916321 3.03329 0.916321Z" fill="#FFCF2D"/>
<path d="M21.3126 176.93C22.7847 176.93 23.8889 178.038 23.8889 179.515C23.8889 180.992 22.6621 182.1 21.3126 182.1C19.8404 182.1 18.7363 180.992 18.7363 179.515C18.7363 178.038 19.8404 176.93 21.3126 176.93Z" fill="#FFCF2D"/>
<path d="M21.3126 154.898C22.7847 154.898 23.8888 156.006 23.8888 157.483C23.8888 158.96 22.7847 160.067 21.3126 160.067C19.8404 160.067 18.7363 158.96 18.7363 157.483C18.7363 156.129 19.8404 154.898 21.3126 154.898Z" fill="#FFCF2D"/>
<path d="M21.3126 132.989C22.7847 132.989 23.8888 134.096 23.8888 135.573C23.8888 137.05 22.7847 138.158 21.3126 138.158C19.8404 138.158 18.7363 137.05 18.7363 135.573C18.7363 134.096 19.8404 132.989 21.3126 132.989Z" fill="#FFCF2D"/>
<path d="M21.3126 110.955C22.7847 110.955 23.8888 112.063 23.8888 113.54C23.8888 115.017 22.7847 116.125 21.3126 116.125C19.8404 116.125 18.7363 115.017 18.7363 113.54C18.7363 112.063 19.8404 110.955 21.3126 110.955Z" fill="#FFCF2D"/>
<path d="M21.3126 88.9231C22.7847 88.9231 23.8889 90.0309 23.8889 91.508C23.8889 92.985 22.7847 94.0928 21.3126 94.0928C19.8404 94.0928 18.7363 92.985 18.7363 91.508C18.7363 90.154 19.8404 88.9231 21.3126 88.9231Z" fill="#FFCF2D"/>
<path d="M21.3126 66.8899C22.7847 66.8899 23.8888 67.9977 23.8888 69.4748C23.8888 70.9518 22.7847 72.0596 21.3126 72.0596C19.8404 72.0596 18.7363 70.9518 18.7363 69.4748C18.7363 67.9977 19.8404 66.8899 21.3126 66.8899Z" fill="#FFCF2D"/>
<path d="M21.3126 44.9817C22.7847 44.9817 23.8888 46.0895 23.8888 47.5665C23.8888 49.0436 22.7847 50.1514 21.3126 50.1514C19.8404 50.1514 18.7363 49.0436 18.7363 47.5665C18.7363 46.0895 19.8404 44.9817 21.3126 44.9817Z" fill="#FFCF2D"/>
<path d="M21.3126 22.9485C22.7847 22.9485 23.8888 24.0563 23.8888 25.5333C23.8888 27.0104 22.7847 28.1182 21.3126 28.1182C19.8404 28.1182 18.7363 27.0104 18.7363 25.5333C18.7363 24.0563 19.8404 22.9485 21.3126 22.9485Z" fill="#FFCF2D"/>
<path d="M21.3126 0.916306C22.7847 0.916306 23.8888 2.02407 23.8888 3.50111C23.8888 4.97815 22.7847 6.08594 21.3126 6.08594C19.8404 6.08594 18.7363 4.97815 18.7363 3.50111C18.7363 2.14716 19.8404 0.916306 21.3126 0.916306Z" fill="#FFCF2D"/>
<path d="M75.9049 176.93C77.377 176.93 78.4811 178.038 78.4811 179.515C78.4811 180.992 77.377 182.1 75.9049 182.1C74.4327 182.1 73.3286 180.992 73.3286 179.515C73.3286 178.038 74.5554 176.93 75.9049 176.93Z" fill="#FFCF2D"/>
<path d="M75.9049 154.898C77.377 154.898 78.4811 156.006 78.4811 157.483C78.4811 158.96 77.377 160.067 75.9049 160.067C74.4327 160.067 73.3286 158.96 73.3286 157.483C73.3286 156.129 74.5554 154.898 75.9049 154.898Z" fill="#FFCF2D"/>
<path d="M75.9049 132.989C77.377 132.989 78.4811 134.096 78.4811 135.573C78.4811 137.05 77.377 138.158 75.9049 138.158C74.4327 138.158 73.3286 137.05 73.3286 135.573C73.3286 134.096 74.5554 132.989 75.9049 132.989Z" fill="#FFCF2D"/>
<path d="M75.9049 110.955C77.377 110.955 78.4811 112.063 78.4811 113.54C78.4811 115.017 77.377 116.125 75.9049 116.125C74.4327 116.125 73.3286 115.017 73.3286 113.54C73.3286 112.063 74.5554 110.955 75.9049 110.955Z" fill="#FFCF2D"/>
<path d="M75.9049 88.9231C77.377 88.9231 78.4811 90.0309 78.4811 91.508C78.4811 92.985 77.377 94.0928 75.9049 94.0928C74.4327 94.0928 73.3286 92.985 73.3286 91.508C73.3286 90.154 74.5554 88.9231 75.9049 88.9231Z" fill="#FFCF2D"/>
<path d="M75.9049 66.8899C77.377 66.8899 78.4811 67.9977 78.4811 69.4748C78.4811 70.9518 77.377 72.0596 75.9049 72.0596C74.4327 72.0596 73.3286 70.9518 73.3286 69.4748C73.3286 67.9977 74.5554 66.8899 75.9049 66.8899Z" fill="#FFCF2D"/>
<path d="M75.9049 44.9817C77.377 44.9817 78.4811 46.0895 78.4811 47.5665C78.4811 49.0436 77.377 50.1514 75.9049 50.1514C74.4327 50.1514 73.3286 49.0436 73.3286 47.5665C73.3286 46.0895 74.5554 44.9817 75.9049 44.9817Z" fill="#FFCF2D"/>
<path d="M75.9049 22.9485C77.377 22.9485 78.4811 24.0563 78.4811 25.5333C78.4811 27.0104 77.377 28.1182 75.9049 28.1182C74.4327 28.1182 73.3286 27.0104 73.3286 25.5333C73.3286 24.0563 74.5554 22.9485 75.9049 22.9485Z" fill="#FFCF2D"/>
<path d="M75.9049 0.916306C77.377 0.916306 78.4811 2.02407 78.4811 3.50111C78.4811 4.97815 77.377 6.08594 75.9049 6.08594C74.4327 6.08594 73.3286 4.97815 73.3286 3.50111C73.3286 2.14716 74.5554 0.916306 75.9049 0.916306Z" fill="#FFCF2D"/>
<path d="M94.1837 176.93C95.6558 176.93 96.7599 178.038 96.7599 179.515C96.7599 180.992 95.6558 182.1 94.1837 182.1C92.7115 182.1 91.6074 180.992 91.6074 179.515C91.6074 178.038 92.7115 176.93 94.1837 176.93Z" fill="#FFCF2D"/>
<path d="M94.1837 154.898C95.6558 154.898 96.7599 156.006 96.7599 157.483C96.7599 158.96 95.6558 160.067 94.1837 160.067C92.7115 160.067 91.6074 158.96 91.6074 157.483C91.6074 156.129 92.7115 154.898 94.1837 154.898Z" fill="#FFCF2D"/>
<path d="M94.1837 132.989C95.6558 132.989 96.7599 134.096 96.7599 135.573C96.7599 137.05 95.6558 138.158 94.1837 138.158C92.7115 138.158 91.6074 137.05 91.6074 135.573C91.6074 134.096 92.7115 132.989 94.1837 132.989Z" fill="#FFCF2D"/>
<path d="M96.7599 113.54C96.7599 112.113 95.6065 110.955 94.1837 110.955C92.7608 110.955 91.6074 112.113 91.6074 113.54C91.6074 114.968 92.7608 116.125 94.1837 116.125C95.6065 116.125 96.7599 114.968 96.7599 113.54Z" fill="#FFCF2D"/>
<path d="M94.1837 88.9231C95.6558 88.9231 96.7599 90.0309 96.7599 91.508C96.7599 92.985 95.6558 94.0928 94.1837 94.0928C92.7115 94.0928 91.6074 92.985 91.6074 91.508C91.6074 90.154 92.7115 88.9231 94.1837 88.9231Z" fill="#FFCF2D"/>
<path d="M94.1837 66.8899C95.6558 66.8899 96.7599 67.9977 96.7599 69.4748C96.7599 70.9518 95.6558 72.0596 94.1837 72.0596C92.7115 72.0596 91.6074 70.9518 91.6074 69.4748C91.6074 67.9977 92.7115 66.8899 94.1837 66.8899Z" fill="#FFCF2D"/>
<path d="M94.1837 44.9817C95.6558 44.9817 96.7599 46.0895 96.7599 47.5665C96.7599 49.0436 95.6558 50.1514 94.1837 50.1514C92.7115 50.1514 91.6074 49.0436 91.6074 47.5665C91.6074 46.0895 92.7115 44.9817 94.1837 44.9817Z" fill="#FFCF2D"/>
<path d="M96.7599 25.5333C96.7599 24.1058 95.6065 22.9485 94.1837 22.9485C92.7608 22.9485 91.6074 24.1058 91.6074 25.5333C91.6074 26.9609 92.7608 28.1182 94.1837 28.1182C95.6065 28.1182 96.7599 26.9609 96.7599 25.5333Z" fill="#FFCF2D"/>
<path d="M94.1837 0.916306C95.6558 0.916306 96.7599 2.02407 96.7599 3.50111C96.7599 4.97815 95.6558 6.08594 94.1837 6.08594C92.7115 6.08594 91.6074 4.97815 91.6074 3.50111C91.6074 2.14716 92.7115 0.916306 94.1837 0.916306Z" fill="#FFCF2D"/>
<path d="M112.463 176.93C113.935 176.93 115.039 178.038 115.039 179.515C115.039 180.992 113.935 182.1 112.463 182.1C110.991 182.1 109.887 180.992 109.887 179.515C109.887 178.038 110.991 176.93 112.463 176.93Z" fill="#FFCF2D"/>
<path d="M112.463 154.898C113.935 154.898 115.039 156.006 115.039 157.483C115.039 158.96 113.935 160.067 112.463 160.067C110.991 160.067 109.887 158.96 109.887 157.483C109.887 156.129 110.991 154.898 112.463 154.898Z" fill="#FFCF2D"/>
<path d="M112.463 132.989C113.935 132.989 115.039 134.096 115.039 135.573C115.039 137.05 113.935 138.158 112.463 138.158C110.991 138.158 109.887 137.05 109.887 135.573C109.887 134.096 110.991 132.989 112.463 132.989Z" fill="#FFCF2D"/>
<path d="M112.463 110.955C113.935 110.955 115.039 112.063 115.039 113.54C115.039 115.017 113.935 116.125 112.463 116.125C110.991 116.125 109.887 115.017 109.887 113.54C109.887 112.063 110.991 110.955 112.463 110.955Z" fill="#FFCF2D"/>
<path d="M112.463 88.9231C113.935 88.9231 115.039 90.0309 115.039 91.508C115.039 92.985 113.935 94.0928 112.463 94.0928C110.991 94.0928 109.887 92.985 109.887 91.508C109.887 90.154 110.991 88.9231 112.463 88.9231Z" fill="#FFCF2D"/>
<path d="M112.463 66.8899C113.935 66.8899 115.039 67.9977 115.039 69.4748C115.039 70.9518 113.935 72.0596 112.463 72.0596C110.991 72.0596 109.887 70.9518 109.887 69.4748C109.887 67.9977 110.991 66.8899 112.463 66.8899Z" fill="#FFCF2D"/>
<path d="M112.463 44.9817C113.935 44.9817 115.039 46.0895 115.039 47.5665C115.039 49.0436 113.935 50.1514 112.463 50.1514C110.991 50.1514 109.887 49.0436 109.887 47.5665C109.887 46.0895 110.991 44.9817 112.463 44.9817Z" fill="#FFCF2D"/>
<path d="M112.381 22.5257C113.853 22.5257 114.957 23.6335 114.957 25.1105C114.957 26.5875 113.853 27.6953 112.381 27.6953C110.909 27.6953 109.805 26.5875 109.805 25.1105C109.805 23.6335 110.909 22.5257 112.381 22.5257Z" fill="#FFCF2D"/>
<path d="M112.463 0.916306C113.935 0.916306 115.039 2.02407 115.039 3.50111C115.039 4.97815 113.935 6.08594 112.463 6.08594C110.991 6.08594 109.887 4.97815 109.887 3.50111C109.887 2.14716 110.991 0.916306 112.463 0.916306Z" fill="#FFCF2D"/>
<path d="M130.62 176.93C132.092 176.93 133.196 178.038 133.196 179.515C133.196 180.992 132.092 182.1 130.62 182.1C129.148 182.1 128.043 180.992 128.043 179.515C128.043 178.038 129.27 176.93 130.62 176.93Z" fill="#FFCF2D"/>
<path d="M130.62 154.898C132.092 154.898 133.196 156.006 133.196 157.483C133.196 158.96 132.092 160.067 130.62 160.067C129.148 160.067 128.043 158.96 128.043 157.483C128.043 156.129 129.27 154.898 130.62 154.898Z" fill="#FFCF2D"/>
<path d="M130.62 132.989C132.092 132.989 133.196 134.096 133.196 135.573C133.196 137.05 132.092 138.158 130.62 138.158C129.148 138.158 128.043 137.05 128.043 135.573C128.043 134.096 129.27 132.989 130.62 132.989Z" fill="#FFCF2D"/>
<path d="M130.62 110.955C132.092 110.955 133.196 112.063 133.196 113.54C133.196 115.017 132.092 116.125 130.62 116.125C129.148 116.125 128.043 115.017 128.043 113.54C128.043 112.063 129.27 110.955 130.62 110.955Z" fill="#FFCF2D"/>
<path d="M130.62 88.9231C132.092 88.9231 133.196 90.0309 133.196 91.508C133.196 92.985 132.092 94.0928 130.62 94.0928C129.148 94.0928 128.043 92.985 128.043 91.508C128.043 90.154 129.27 88.9231 130.62 88.9231Z" fill="#FFCF2D"/>
<path d="M130.62 66.8899C132.092 66.8899 133.196 67.9977 133.196 69.4748C133.196 70.9518 132.092 72.0596 130.62 72.0596C129.148 72.0596 128.043 70.9518 128.043 69.4748C128.043 67.9977 129.27 66.8899 130.62 66.8899Z" fill="#FFCF2D"/>
<path d="M130.62 44.9817C132.092 44.9817 133.196 46.0895 133.196 47.5665C133.196 49.0436 132.092 50.1514 130.62 50.1514C129.148 50.1514 128.043 49.0436 128.043 47.5665C128.043 46.0895 129.27 44.9817 130.62 44.9817Z" fill="#FFCF2D"/>
<path d="M130.62 22.9485C132.092 22.9485 133.196 24.0563 133.196 25.5333C133.196 27.0104 132.092 28.1182 130.62 28.1182C129.148 28.1182 128.043 27.0104 128.043 25.5333C128.043 24.0563 129.27 22.9485 130.62 22.9485Z" fill="#FFCF2D"/>
<path d="M130.62 0.916306C132.092 0.916306 133.196 2.02407 133.196 3.50111C133.196 4.97815 132.092 6.08594 130.62 6.08594C129.148 6.08594 128.043 4.97815 128.043 3.50111C128.043 2.14716 129.27 0.916306 130.62 0.916306Z" fill="#FFCF2D"/>
</g>
<defs>
<clipPath id="clip0_2893_2587">
<rect width="181.184" height="132.739" fill="white" transform="translate(0.457031 182.1) rotate(-90)"/>
</clipPath>
</defs>
</svg>
